<svg xmlns="http://www.w3.org/2000/svg" viewBox="0 0 1240 320" role="img" aria-labelledby="title desc">
  <title id="title">Safe-to-Insight Studio</title>
  <desc id="desc">Safe-to-Insight Studio logo with a flowing data transformation mark.</desc>
  <defs>
    <linearGradient id="bg" x1="28" y1="22" x2="290" y2="298" gradientUnits="userSpaceOnUse">
      <stop stop-color="#102D4D"/>
      <stop offset="1" stop-color="#071A2C"/>
    </linearGradient>
    <linearGradient id="accent" x1="200" y1="177" x2="270" y2="247" gradientUnits="userSpaceOnUse">
      <stop stop-color="#38D6C2"/>
      <stop offset="1" stop-color="#0F9D8A"/>
    </linearGradient>
  </defs>

  <rect x="28" y="28" width="264" height="264" rx="64" fill="url(#bg)"/>
  <rect x="37" y="37" width="246" height="246" rx="56" fill="none" stroke="#FFFFFF" stroke-opacity=".1" stroke-width="3"/>
  <circle cx="82" cy="104" r="10" fill="#38D6C2"/>
  <circle cx="82" cy="160" r="7" fill="#B8C8D8" fill-opacity=".72"/>
  <circle cx="82" cy="216" r="5" fill="#B8C8D8" fill-opacity=".42"/>
  <path d="M82 104h112c22 0 36 12 36 30s-14 30-36 30h-68c-22 0-36 12-36 30s14 30 36 30h104"
        fill="none" stroke="#F8FCFF" stroke-width="21" stroke-linecap="round" stroke-linejoin="round"/>
  <path d="M210 204l28 20-28 20" fill="none" stroke="url(#accent)" stroke-width="21" stroke-linecap="round" stroke-linejoin="round"/>
  <path d="M238 72l5 12 12 5-12 5-5 12-5-12-12-5 12-5 5-12Z" fill="#38D6C2"/>

  <text x="342" y="150" fill="#0B1F33" font-family="Inter, 'Noto Sans Thai', Arial, sans-serif" font-size="78" font-weight="700" letter-spacing="-2">Safe-to-Insight</text>
  <text x="348" y="218" fill="#0F9D8A" font-family="Inter, 'Noto Sans Thai', Arial, sans-serif" font-size="34" font-weight="700" letter-spacing="12">STUDIO</text>
  <text x="348" y="263" fill="#53677A" font-family="'Noto Sans Thai', Arial, sans-serif" font-size="24" font-weight="400">เตรียมข้อมูลให้พร้อมใช้กับ AI อย่างปลอดภัย</text>
</svg>
